<?xml version="1.0" encoding="utf-8"?>
<!-- Generator: Adobe Illustrator 17.0.0, SVG Export Plug-In . SVG Version: 6.00 Build 0)  -->
<!DOCTYPE svg PUBLIC "-//W3C//DTD SVG 1.1//EN" "http://www.w3.org/Graphics/SVG/1.1/DTD/svg11.dtd">
<svg version="1.1" xmlns="http://www.w3.org/2000/svg" xmlns:xlink="http://www.w3.org/1999/xlink" x="0px" y="0px"
	 width="141.732px" height="141.732px" viewBox="0 0 141.732 141.732" enable-background="new 0 0 141.732 141.732"
	 xml:space="preserve">
<g id="Capa_1">
	<path fill="#E1AC71" d="M18.879,38.178c0,0-1.081-2.157-3.086-1.081c-1.705,0.915-1.037,3.047,1.344,3.781
		c2.381,0.734,3.337,1.294,3.337,1.294s1.452-2.671,1.557-4.274s-0.531-2.857-1.677-2.671
		C18.277,35.562,18.879,38.178,18.879,38.178z"/>
	<path fill="#E1AC71" d="M11.664,45.973c0,0-2.365-0.48-2.755,1.763c-0.332,1.906,1.759,2.696,3.805,1.274
		c2.046-1.422,3.077-1.829,3.077-1.829s-1.207-2.79-2.404-3.862c-1.197-1.072-2.576-1.344-3.137-0.328
		C9.234,44.833,11.664,45.973,11.664,45.973z"/>
	<path fill="#E1AC71" d="M42.693,32.153c0,0,0.959-2.517-1.388-3.272c-1.995-0.641-3.238,1.531-2.086,3.977
		c1.152,2.447,1.399,3.634,1.399,3.634s3.236-0.913,4.616-2.066c1.38-1.153,1.931-2.623,0.939-3.385
		C44.376,29.661,42.693,32.153,42.693,32.153z"/>
	<path fill="#E1AC71" d="M52.697,35.391c0,0,2.089-1.701,0.433-3.527c-1.408-1.553-3.569-0.292-3.794,2.403
		s-0.604,3.847-0.604,3.847s3.259,0.826,5.031,0.517c1.772-0.309,2.983-1.307,2.505-2.462
		C55.401,34.073,52.697,35.391,52.697,35.391z"/>
	<path fill="#E1AC71" d="M101.749,55.504c0,0-0.766,2.003,1.202,2.776c1.674,0.657,2.681-1.044,1.686-3.127
		c-0.995-2.083-1.217-3.073-1.217-3.073s-2.688,0.538-3.824,1.394s-1.576,2.026-0.738,2.716
		C100.378,57.439,101.749,55.504,101.749,55.504z"/>
	<path fill="#E1AC71" d="M130.853,70.533c0,0,2.053-0.619,1.461-2.649c-0.504-1.726-2.466-1.483-3.506,0.578
		c-1.04,2.061-1.688,2.842-1.688,2.842s2.069,1.798,3.441,2.174c1.372,0.376,2.567,0.008,2.6-1.077
		C133.222,70.435,130.853,70.533,130.853,70.533z"/>
	<path fill="#E1AC71" d="M129.769,77.238c0,0,1.819,1.136,2.955-0.647c0.966-1.516-0.51-2.832-2.746-2.255
		c-2.235,0.576-3.25,0.604-3.25,0.604s0.012,2.741,0.634,4.021c0.622,1.279,1.686,1.935,2.524,1.245
		C131.405,78.955,129.769,77.238,129.769,77.238z"/>
	<path fill="#E1AC71" d="M119.901,80.099c0,0,0.842,1.972,2.794,1.159c1.66-0.692,1.201-2.615-0.962-3.42
		c-2.163-0.806-3.011-1.363-3.011-1.363s-1.558,2.255-1.78,3.661c-0.222,1.405,0.276,2.552,1.358,2.465
		C120.26,82.443,119.901,80.099,119.901,80.099z"/>
	<path fill="#E1AC71" d="M17.327,102.542c0,0-1.212,0.94-0.295,2.13c0.78,1.012,2.027,0.344,2.192-1.288s0.397-2.317,0.397-2.317
		s-1.843-0.655-2.856-0.549c-1.013,0.106-1.716,0.658-1.46,1.385C15.77,103.22,17.327,102.542,17.327,102.542z"/>
	<path fill="#E1AC71" d="M24.895,105.253c0,0-1.212,0.94-0.295,2.13c0.78,1.012,2.027,0.344,2.192-1.288
		c0.165-1.633,0.397-2.317,0.397-2.317s-1.843-0.655-2.856-0.549c-1.013,0.106-1.716,0.658-1.46,1.385
		C23.338,105.931,24.895,105.253,24.895,105.253z"/>
	<path fill="#E1AC71" d="M62.983,125.595c0,0-1.691,1.319-0.405,2.998c1.093,1.427,2.835,0.492,3.06-1.806
		c0.225-2.297,0.547-3.26,0.547-3.26s-2.579-0.929-3.994-0.783s-2.396,0.92-2.035,1.944
		C60.809,126.543,62.983,125.595,62.983,125.595z"/>
	<path fill="#E1AC71" d="M47.544,126.314c0,0-0.647,2.045,1.364,2.7c1.709,0.557,2.615-1.2,1.499-3.221
		c-1.116-2.021-1.396-2.996-1.396-2.996s-2.652,0.695-3.736,1.617c-1.084,0.921-1.454,2.115-0.576,2.755
		C46.289,128.326,47.544,126.314,47.544,126.314z"/>
	<path fill="#E1AC71" d="M42.353,121.564c0,0-1.332,1.035-0.323,2.347c0.858,1.116,2.229,0.381,2.409-1.418
		c0.18-1.799,0.434-2.553,0.434-2.553s-2.027-0.724-3.141-0.608c-1.113,0.116-1.886,0.723-1.604,1.524
		C40.642,122.309,42.353,121.564,42.353,121.564z"/>
	<path fill="#E1AC71" d="M117.663,105.922c0,0,0.113,2.142,2.225,2.049c1.796-0.079,2.027-2.042,0.272-3.543
		c-1.754-1.5-2.359-2.315-2.359-2.315s-2.239,1.582-2.93,2.826c-0.691,1.243-0.618,2.491,0.428,2.782
		C117.195,108.247,117.663,105.922,117.663,105.922z"/>
	<path fill="#E1AC71" d="M91.004,124.73c0,0,0.113,2.142,2.225,2.049c1.796-0.079,2.027-2.042,0.272-3.543
		c-1.754-1.5-2.359-2.315-2.359-2.315s-2.239,1.582-2.93,2.826c-0.691,1.243-0.618,2.491,0.428,2.782
		C90.536,127.055,91.004,124.73,91.004,124.73z"/>
	<path fill="#E1AC71" d="M82.853,124.132c0,0-1.571,1.46-0.145,3.021c1.212,1.328,2.867,0.246,2.893-2.063
		c0.026-2.308,0.264-3.295,0.264-3.295s-2.649-0.703-4.047-0.437c-1.397,0.267-2.308,1.123-1.86,2.112
		C80.768,125.264,82.853,124.132,82.853,124.132z"/>
	<path fill="#E1AC71" d="M98.75,122.019c0,0,1.363,1.655,3.007,0.325c1.398-1.131,0.416-2.847-1.887-3.011
		c-2.303-0.164-3.273-0.46-3.273-0.46s-0.86,2.603-0.676,4.014c0.183,1.411,0.984,2.371,1.997,1.983
		C99.756,124.167,98.75,122.019,98.75,122.019z"/>
	<path fill="#E1AC71" d="M124.168,102.59c0,0,1.367,1.652,3.008,0.318c1.395-1.134,0.41-2.848-1.894-3.007
		c-2.303-0.159-3.274-0.452-3.274-0.452s-0.854,2.605-0.668,4.015s0.989,2.368,2.002,1.978
		C125.178,104.736,124.168,102.59,124.168,102.59z"/>
	<path fill="#E1AC71" d="M98.307,89.552c0,0-2.431-1.005-3.307,1.31c-0.745,1.968,1.33,3.247,3.809,2.154
		c2.48-1.093,3.665-1.313,3.665-1.313s-0.72-3.232-1.782-4.627c-1.061-1.395-2.481-1.972-3.288-1.003
		C95.941,87.828,98.307,89.552,98.307,89.552z"/>
	<path fill="#E1AC71" d="M74.138,97.254c0,0-1.892-0.796-2.551,0.985c-0.561,1.514,1.057,2.52,2.969,1.695s2.829-0.985,2.829-0.985
		s-0.585-2.503-1.418-3.59c-0.834-1.086-1.938-1.544-2.556-0.802C72.291,95.903,74.138,97.254,74.138,97.254z"/>
	<path fill="#E1AC71" d="M34.715,95.164c0,0-1.892-0.796-2.551,0.985c-0.561,1.514,1.057,2.52,2.969,1.695
		c1.912-0.824,2.829-0.985,2.829-0.985s-0.585-2.503-1.418-3.59c-0.834-1.086-1.938-1.544-2.556-0.802
		C32.868,93.813,34.715,95.164,34.715,95.164z"/>
	<path fill="#E1AC71" d="M40.733,86.618c0,0-1.078-1.747-2.649-0.68c-1.336,0.907-0.603,2.665,1.432,3.104
		c2.035,0.439,2.875,0.841,2.875,0.841s0.978-2.377,0.93-3.746S42.64,83.755,41.707,84C40.014,84.445,40.733,86.618,40.733,86.618z"
		/>
	<path fill="#E1AC71" d="M24.02,71.658c0,0,1.298-1.59-0.224-2.726c-1.294-0.966-2.715,0.302-2.465,2.369s0.146,2.992,0.146,2.992
		s2.566,0.146,3.844-0.346c1.278-0.493,2.029-1.423,1.491-2.225C25.838,70.268,24.02,71.658,24.02,71.658z"/>
	<path fill="#E1AC71" d="M46.667,86.624c0,0,0.339-2.024-1.546-2.256c-1.603-0.197-2.209,1.608-0.966,3.279s1.609,2.526,1.609,2.526
		s2.301-1.145,3.167-2.206c0.865-1.061,1.056-2.242,0.192-2.672C47.556,84.516,46.667,86.624,46.667,86.624z"/>
	<path fill="#E1AC71" d="M44.041,113.084c0,0-1.401-1.5-2.731-0.144c-1.131,1.153-0.065,2.731,2.017,2.76
		c2.082,0.029,2.984,0.257,2.984,0.257s0.489-2.524,0.172-3.856c-0.317-1.332-1.138-2.201-2.005-1.776
		C42.908,111.096,44.041,113.084,44.041,113.084z"/>
	<path fill="#E1AC71" d="M53.808,111.47c0,0-1.178-1.388-2.519-0.238c-1.14,0.977-0.279,2.421,1.648,2.531s2.744,0.349,2.744,0.349
		s0.655-2.219,0.468-3.414s-0.878-1.999-1.715-1.658C52.917,109.66,53.808,111.47,53.808,111.47z"/>
	<path fill="#E1AC71" d="M19.79,94.495c0,0-1.016-1.21-2.158-0.219c-0.971,0.842-0.227,2.099,1.424,2.204
		c1.65,0.105,2.351,0.317,2.351,0.317s0.55-1.922,0.384-2.96c-0.166-1.038-0.762-1.739-1.477-1.447
		C19.018,92.92,19.79,94.495,19.79,94.495z"/>
	<path fill="#E1AC71" d="M10.81,73.88c0,0-1.016-1.21-2.158-0.219c-0.971,0.842-0.227,2.099,1.424,2.204s2.351,0.317,2.351,0.317
		s0.55-1.922,0.384-2.96c-0.166-1.038-0.762-1.739-1.477-1.447C10.038,72.305,10.81,73.88,10.81,73.88z"/>
	<path fill="#E1AC71" d="M123.897,61.382c0,0,0.203,2.135,2.31,1.953c1.791-0.155,1.938-2.126,0.122-3.551
		c-1.816-1.425-2.455-2.213-2.455-2.213s-2.17,1.675-2.808,2.947s-0.512,2.515,0.545,2.761
		C123.528,63.725,123.897,61.382,123.897,61.382z"/>
	<path fill="#E1AC71" d="M105.987,25.795c0,0,1.463-0.586,0.866-1.931c-0.507-1.143-1.933-0.822-2.535,0.674
		c-0.603,1.495-1.018,2.082-1.018,2.082s1.666,1.069,2.706,1.218c1.04,0.149,1.89-0.197,1.829-0.944
		C107.724,25.54,105.987,25.795,105.987,25.795z"/>
	<path fill="#E1AC71" d="M111.37,27.104c0,0,1.249,1.413,2.497,0.202c1.062-1.03,0.122-2.506-1.784-2.586
		c-1.906-0.08-2.726-0.312-2.726-0.312s-0.506,2.304-0.246,3.535s0.992,2.05,1.795,1.682
		C112.362,28.958,111.37,27.104,111.37,27.104z"/>
	<path fill="#E1AC71" d="M122.606,32.384c0,0,2.17,0.591,2.473-1.31c0.257-1.617-1.67-2.455-3.504-1.384
		c-1.834,1.07-2.765,1.343-2.765,1.343s1.169,2.494,2.287,3.507c1.119,1.014,2.384,1.352,2.872,0.519
		C124.852,33.549,122.606,32.384,122.606,32.384z"/>
	<path fill="#E1AC71" d="M128.009,44.261c0,0,1.81-1.336,0.506-2.752c-1.109-1.204-2.961-0.212-3.259,1.89s-0.662,3.002-0.662,3.002
		s2.681,0.63,4.17,0.381c1.489-0.249,2.539-1.032,2.188-1.931C130.316,43.222,128.009,44.261,128.009,44.261z"/>
	<path fill="#E1AC71" d="M132.321,50.583c0,0,2.123-0.743,1.295-2.481c-0.705-1.478-2.767-1.076-3.672,0.846
		c-0.905,1.921-1.517,2.674-1.517,2.674s2.376,1.392,3.872,1.593c1.496,0.201,2.73-0.238,2.66-1.2
		C134.832,50.27,132.321,50.583,132.321,50.583z"/>
	<path fill="#E1AC71" d="M89.337,9.996c0,0,0.907-2.537-1.455-3.243c-2.008-0.6-3.205,1.597-2.003,4.02s1.474,3.604,1.474,3.604
		s3.216-0.98,4.573-2.161s1.877-2.662,0.869-3.403C90.969,7.469,89.337,9.996,89.337,9.996z"/>
	<path fill="#E1AC71" d="M74.053,15.777c0,0,1.948-1.861,0.153-3.551c-1.526-1.437-3.581-0.009-3.593,2.695
		c-0.011,2.705-0.299,3.882-0.299,3.882s3.314,0.566,5.056,0.118c1.742-0.448,2.871-1.538,2.303-2.653
		C76.644,14.25,74.053,15.777,74.053,15.777z"/>
	<path fill="#E1AC71" d="M111.088,16.964c0,0,1.647-1.439,0.289-2.579c-1.154-0.969-2.867,0.161-3.003,2.121
		s-0.421,2.826-0.421,2.826s2.627,0.254,4.043-0.152s2.371-1.249,1.968-2.029C113.235,15.736,111.088,16.964,111.088,16.964z"/>
	<path fill="#E1AC71" d="M101.741,14.707c0,0-0.828-2.053-2.649-1.193c-1.548,0.731-1.082,2.734,0.967,3.563
		c2.049,0.828,2.857,1.405,2.857,1.405s1.425-2.362,1.607-3.829s-0.306-2.661-1.322-2.564
		C101.36,12.264,101.741,14.707,101.741,14.707z"/>
	<path fill="#E1AC71" d="M109.03,54.579c0,0,0.433,1.901,2.149,1.414c1.459-0.414,1.336-2.221-0.34-3.233
		c-1.676-1.011-2.301-1.627-2.301-1.627s-1.583,1.849-1.951,3.097s-0.111,2.355,0.793,2.416
		C109.016,56.756,109.03,54.579,109.03,54.579z"/>
	<path fill="#E1AC71" d="M95.793,47.168c0,0-2.228,1.515-0.735,3.477c1.269,1.668,3.531,0.598,3.987-2.067
		c0.456-2.666,0.933-3.78,0.933-3.78s-3.176-1.104-4.968-0.948c-1.792,0.155-3.085,1.045-2.708,2.238
		C92.985,48.248,95.793,47.168,95.793,47.168z"/>
	<path fill="#E1AC71" d="M67.788,8.167c0,0,0.688-2.582-1.705-3.086c-2.034-0.428-3.038,1.843-1.65,4.139
		c1.388,2.296,1.753,3.442,1.753,3.442s3.099-1.233,4.343-2.513c1.244-1.28,1.636-2.786,0.579-3.436
		C69.193,5.535,67.788,8.167,67.788,8.167z"/>
	<path fill="#E1AC71" d="M60.302,9.8c0,0-1.617-2.155-3.507-0.574c-1.608,1.345-0.435,3.555,2.25,3.887
		c2.684,0.332,3.819,0.757,3.819,0.757s0.956-3.224,0.718-5.007c-0.238-1.783-1.187-3.033-2.36-2.601
		C59.093,7.046,60.302,9.8,60.302,9.8z"/>
</g>
<g id="fondo" display="none">
</g>
<g id="texto">
</g>
<g id="texto_escudo">
	<g>
		<path fill="#E1AC71" d="M22.261,54.096c-0.055-0.299-1.335-7.344-0.66-10.044c0.675-2.698,2.106-4.59,2.167-4.669l0.596,0.455
			c-0.014,0.018-1.399,1.855-2.035,4.396c-0.636,2.544,0.656,9.656,0.669,9.727L22.261,54.096z"/>
	</g>
	<g>
		<path fill="#E1AC71" d="M21.46,45.092c-0.231-1.248-1.69-3.719-1.706-3.744l0.646-0.383c0.063,0.106,1.542,2.611,1.797,3.99
			L21.46,45.092z"/>
	</g>
	<g>
		<path fill="#E1AC71" d="M22.278,52.236c-0.003-0.008-0.522-1.224-3.182-3.088c-2.688-1.884-5.02-1.954-5.043-1.954l0.013-0.75
			c0.104,0.002,2.571,0.065,5.46,2.09c2.888,2.024,3.43,3.378,3.451,3.435L22.278,52.236z"/>
	</g>
	<g>
		<path fill="#E1AC71" d="M58.361,27.277l-0.544-0.517c0.029-0.03,2.9-3.069,5.172-6.856c2.257-3.762,2.929-8.056,2.936-8.099
			l0.741,0.112c-0.027,0.182-0.701,4.485-3.034,8.373C61.316,24.15,58.391,27.246,58.361,27.277z"/>
	</g>
	<g>
		<path fill="#E1AC71" d="M64.698,18.183l-0.75-0.017l0.038-1.725c0.028-1.273-1.698-3.139-2.365-3.75l0.506-0.554
			c0.108,0.099,2.651,2.446,2.609,4.32L64.698,18.183z"/>
	</g>
	<g>
		<path fill="#E1AC71" d="M36.082,45.466l-0.719-0.214c0.03-0.101,0.758-2.51,2.474-5.445c1.704-2.913,2.904-4.549,2.916-4.565
			l0.604,0.445c-0.012,0.016-1.19,1.624-2.872,4.5C36.816,43.038,36.089,45.443,36.082,45.466z"/>
	</g>
	<g>
		<path fill="#E1AC71" d="M35.12,46.802l-0.295-0.689c0.034-0.015,3.448-1.479,6.612-3.157l0.184-0.098
			c1.561-0.834,2.795-1.583,3.669-2.223c3.206-2.351,4.164-3.661,4.173-3.674l0.611,0.435c-0.04,0.056-1.014,1.404-4.341,3.844
			c-0.902,0.662-2.167,1.429-3.76,2.28l-0.184,0.098C38.596,45.311,35.154,46.787,35.12,46.802z"/>
	</g>
	<g>
		<path fill="#E1AC71" d="M45.125,43.795c-1.097,0.164-2.089,0.207-2.824,0.207c-0.761,0-1.245-0.046-1.284-0.05l0.073-0.746
			c0.019,0.001,1.789,0.167,3.923-0.153c2.168-0.325,4.641-0.928,4.666-0.934l0.178,0.729"/>
	</g>
	<g>
		<path fill="#E1AC71" d="M64.433,21.352l-0.143-0.736c0.031-0.006,3.055-0.597,4.639-1.501c1.394-0.795,1.619-1.107,1.627-1.12
			l0.682,0.303c-0.13,0.375-1.125,1.005-1.938,1.469C67.608,20.731,64.562,21.327,64.433,21.352z"/>
	</g>
	<g>
		<path fill="#E1AC71" d="M82.668,16.741l-0.12-0.74c0.025-0.004,2.501-0.419,3.783-1.572c1.257-1.131,1.485-2.085,1.488-2.095
			l0.733,0.157c-0.01,0.048-0.263,1.185-1.719,2.495C85.385,16.288,82.778,16.723,82.668,16.741z"/>
	</g>
	<g>
		<path fill="#E1AC71" d="M96.674,24.714c-0.039,0-0.063,0-0.072,0l0.017-0.75c0.024-0.001,3.103,0.044,7.118-1.668
			c3.941-1.682,5.049-3.886,5.06-3.908l0.676,0.324c-0.047,0.1-1.215,2.471-5.442,4.274C100.154,24.639,97.182,24.714,96.674,24.714
			z"/>
	</g>
	<g>
		<path fill="#E1AC71" d="M101.276,23.864l-0.631-0.405c0.006-0.01,0.64-1.009,1.169-2.595c0.532-1.595,0.683-3.432,0.684-3.451
			l0.748,0.06c-0.006,0.079-0.16,1.948-0.721,3.628C101.964,22.784,101.304,23.821,101.276,23.864z"/>
	</g>
	<g>
		<path fill="#E1AC71" d="M109.37,25.447c-1.139-1.804-2.552-3.41-2.938-3.322l-1.008,0.166l-0.122-0.74l1.008-0.166
			c1.137-0.166,2.961,2.5,3.694,3.662L109.37,25.447z"/>
	</g>
	<g>
		<path fill="#E1AC71" d="M103.694,26.876l-1.548-0.332c-1.537-0.329-4.736-1.143-4.768-1.151l0.186-0.727
			c0.032,0.008,3.217,0.818,4.74,1.145l1.548,0.332L103.694,26.876z"/>
	</g>
	<g>
		<path fill="#E1AC71" d="M107.406,32.324l-0.304-0.686c0.125-0.055,3.121-1.356,7.794-1.193c4.471,0.16,5.154,0.321,5.246,0.351
			l-0.237,0.712c-0.009-0.001-0.672-0.157-5.035-0.313C110.373,31.028,107.436,32.311,107.406,32.324z"/>
	</g>
	<g>
		<path fill="#E1AC71" d="M98.448,45.732l-0.075-0.746c0.004-0.001,1.121-0.172,4.294-2.245c1.654-1.081,2.712-3.016,3.309-4.448
			c0.092-0.222,0.177-0.438,0.253-0.646c0.466-1.265,0.655-2.243,0.657-2.252l0.736,0.141c-0.008,0.042-0.201,1.044-0.689,2.371
			c-0.081,0.218-0.169,0.444-0.265,0.676c-0.927,2.226-2.135,3.836-3.591,4.788C99.741,45.548,98.571,45.72,98.448,45.732z"/>
	</g>
	<g>
		<path fill="#E1AC71" d="M103.201,53.333l-0.657-0.361c0.02-0.036,2.005-3.662,3.196-7.074c1.169-3.348,0.351-7.666,0.342-7.709
			l0.736-0.144c0.036,0.185,0.865,4.563-0.371,8.1C105.236,49.617,103.221,53.296,103.201,53.333z"/>
	</g>
	<g>
		<path fill="#E1AC71" d="M108.621,52.431l-0.742-0.105c0.002-0.015,0.206-1.544-0.221-4.425c-0.396-2.674-1.299-3.191-1.308-3.196
			l0.323-0.676c0.128,0.059,1.269,0.666,1.727,3.762C108.845,50.795,108.63,52.366,108.621,52.431z"/>
	</g>
	<g>
		<path fill="#E1AC71" d="M127.344,51.77c-1.649,0-4.127-0.178-5.841-1.107c-2.65-1.436-9.614-6.887-9.91-7.119l0.463-0.59
			c0.072,0.056,7.209,5.644,9.804,7.049c2.52,1.365,7.091,0.955,7.138,0.951l0.07,0.747C128.996,51.708,128.313,51.77,127.344,51.77
			z"/>
	</g>
	<g>
		<path fill="#E1AC71" d="M119.137,48.465c-1.07,0-1.387-0.081-1.432-0.094l0.213-0.719c0.017,0.003,0.657,0.152,3.409-0.015
			c2.679-0.162,3.587-1.632,3.624-1.695l0.647,0.378c-0.044,0.077-1.123,1.877-4.227,2.066
			C120.398,48.444,119.673,48.465,119.137,48.465z"/>
	</g>
	<g>
		<path fill="#E1AC71" d="M123.705,59.086c-0.271-0.108-0.408-0.162-0.242-2.971c0.159-2.7-0.739-5.078-0.748-5.102l0.7-0.269
			c0.04,0.103,0.965,2.547,0.797,5.415c-0.118,2.003-0.052,2.369-0.037,2.422l-0.313,0.085l-0.013,0.061l0.296,0.249L123.705,59.086
			z"/>
	</g>
	<g>
		<path fill="#E1AC71" d="M127.839,76.023l-5.403-3.372c-5.478-3.418-6.43-7.905-6.468-8.094l0.735-0.148
			c0.009,0.043,0.942,4.368,6.13,7.605l5.403,3.372L127.839,76.023z"/>
	</g>
	<g>
		
			<rect x="124.487" y="68.217" transform="matrix(0.0911 0.9958 -0.9958 0.0911 184.5936 -59.4434)" fill="#E1AC71" width="0.75" height="6.378"/>
	</g>
	<g>
		<path fill="#E1AC71" d="M118.499,77.564l-0.442-1.769c-0.45-1.799-0.294-6.966-0.288-7.185l0.75,0.023
			c-0.002,0.053-0.16,5.281,0.265,6.98l0.442,1.769L118.499,77.564z"/>
	</g>
	<g>
		<path fill="#E1AC71" d="M104.611,92.806c-0.451,0-0.91-0.046-1.367-0.155l-3.04-0.719l0.173-0.729l3.04,0.719
			c2.84,0.67,5.917-1.42,5.948-1.441l0.426,0.617C109.673,91.178,107.282,92.806,104.611,92.806z"/>
	</g>
	<g>
		<path fill="#E1AC71" d="M117.674,103.615l-0.719-0.215c0.005-0.016,0.487-1.704,0.663-6.682c0.031-0.887-0.005-1.763-0.108-2.602
			c-0.4-3.249-1.689-5.008-1.702-5.026l0.6-0.45c0.058,0.077,1.419,1.921,1.846,5.384c0.108,0.878,0.146,1.793,0.114,2.72
			C118.187,101.852,117.695,103.546,117.674,103.615z"/>
	</g>
	<g>
		<path fill="#E1AC71" d="M122.299,100.468c-0.012-0.023-1.175-2.36-2.463-4.054c-1.228-1.614-2.087-1.993-2.096-1.997l0.284-0.694
			c0.042,0.017,1.036,0.431,2.409,2.237c1.333,1.752,2.49,4.077,2.539,4.175L122.299,100.468z"/>
	</g>
	<g>
		<path fill="#E1AC71" d="M111.961,98.169l-0.57-0.488c0.01-0.012,0.989-1.165,2.169-3.257c1.088-1.929,0.634-3.02,0.629-3.03
			l0.681-0.315c0.026,0.057,0.64,1.416-0.656,3.713C112.994,96.955,112.003,98.12,111.961,98.169z"/>
	</g>
	<g>
		<path fill="#E1AC71" d="M91.034,122.566l-0.724-0.198c0.011-0.041,1.14-4.142,2.873-8.301c0.614-1.476,1.24-2.801,1.858-3.939
			c2.788-5.129,5.195-6.395,5.296-6.446l0.341,0.668c-0.023,0.012-2.321,1.246-4.979,6.136c-0.606,1.115-1.22,2.417-1.825,3.869
			C92.16,118.471,91.044,122.526,91.034,122.566z"/>
	</g>
	<g>
		<path fill="#E1AC71" d="M97.751,120.396c-0.094-0.066-2.312-1.641-3.377-2.818c-1.084-1.198-1.529-2.316-1.547-2.363l0.698-0.274
			c0.004,0.01,0.418,1.044,1.404,2.134c1.011,1.117,3.233,2.693,3.255,2.709L97.751,120.396z"/>
	</g>
	<g>
		<path fill="#E1AC71" d="M84.981,122.747l-0.336-0.671l2.321-1.163c2.208-1.106,6.456-7.431,6.499-7.495l0.623,0.417
			c-0.179,0.267-4.403,6.554-6.786,7.749L84.981,122.747z"/>
	</g>
	<g>
		<path fill="#E1AC71" d="M65.17,124.829l-0.402-0.633l1.216-0.774c1.195-0.761,4.486-3.063,4.519-3.086l0.43,0.614
			c-0.135,0.095-3.337,2.335-4.546,3.105L65.17,124.829z"/>
	</g>
	<g>
		<path fill="#E1AC71" d="M86.802,103.792c-0.013-0.008-1.297-0.813-2.886-1.715c-2.357-1.338-4.145-2.19-5.169-2.463l-2.487-0.663
			l0.193-0.725l2.487,0.663c1.101,0.294,2.9,1.147,5.346,2.536c1.604,0.911,2.902,1.725,2.915,1.733L86.802,103.792z"/>
	</g>
	<g>
		<path fill="#E1AC71" d="M48.417,123.912c-0.095-0.285-0.173-1.448,2.797-4.472c0.475-0.483,0.999-0.888,1.558-1.203
			c2.802-1.573,5.602-0.456,5.719-0.408l-0.284,0.694c-0.026-0.01-2.593-1.024-5.067,0.368c-0.498,0.28-0.965,0.641-1.391,1.074
			c-2.704,2.752-2.612,3.735-2.611,3.745L48.417,123.912z"/>
	</g>
	<g>
		<path fill="#E1AC71" d="M44.102,120.648l-0.495-0.563c0.098-0.086,2.434-2.119,4.785-2.437c2.338-0.314,4.603,0.53,4.698,0.566
			l-0.266,0.701c-0.021-0.008-2.192-0.815-4.332-0.524C46.367,118.678,44.124,120.629,44.102,120.648z"/>
	</g>
	<g>
		<path fill="#E1AC71" d="M47.606,118.265c-0.07-0.081-1.718-1.989-2.124-3.436l0.723-0.202c0.359,1.284,1.951,3.128,1.967,3.146
			L47.606,118.265z"/>
	</g>
	<g>
		<path fill="#E1AC71" d="M49.92,100.793c-0.158-0.118-3.894-2.938-6.118-6.942c-2.183-3.928-2.354-4.843-2.366-4.935l0.743-0.101
			c0.005,0.025,0.188,0.909,2.278,4.671c2.145,3.86,5.874,6.678,5.912,6.706L49.92,100.793z"/>
	</g>
	<g>
		<path fill="#E1AC71" d="M44.249,94.025l-0.237-0.712v0c-0.002,0,0.51-0.237,0.923-1.477c0.478-1.432,0.667-3.649,0.668-3.671
			l0.747,0.063c-0.008,0.094-0.198,2.328-0.704,3.846C45.105,93.697,44.335,93.996,44.249,94.025z"/>
	</g>
	<g>
		<path fill="#E1AC71" d="M56.714,117.804l-0.292-1.351c-0.274-1.263-1.425-2.985-1.437-3.002l0.622-0.419
			c0.051,0.075,1.243,1.857,1.548,3.262l0.292,1.352L56.714,117.804z"/>
	</g>
	<g>
		<path fill="#E1AC71" d="M44.1,98.077c-0.166-0.014-4.095-0.341-6.368-0.951c-1.605-0.431-2.534-0.874-2.686-1.281l0.702-0.263
			c-0.02-0.05,0.29,0.313,2.178,0.819c2.207,0.593,6.195,0.925,6.235,0.929L44.1,98.077z"/>
	</g>
	<g>
		<path fill="#E1AC71" d="M30.434,102.063c-0.136-0.009-3.379-0.256-6.25-2.227c-2.886-1.98-3.488-3.597-3.512-3.665l0.706-0.252
			c0.005,0.012,0.574,1.476,3.231,3.299c2.697,1.851,5.846,2.094,5.877,2.097L30.434,102.063z"/>
	</g>
	<g>
		<path fill="#E1AC71" d="M19.216,101.698l-0.473-0.582c0.067-0.055,1.666-1.349,2.984-2.082l1.305-0.726l0.364,0.655l-1.305,0.726
			C20.832,100.391,19.232,101.685,19.216,101.698z"/>
	</g>
	<g>
		<path fill="#E1AC71" d="M26.786,104.49l-0.245-0.709c1.303-0.451,3.661-2.363,3.685-2.383l0.474,0.582
			C30.599,102.062,28.214,103.996,26.786,104.49z"/>
	</g>
	<g>
		<path fill="#E1AC71" d="M22.038,81.913l-1.511-0.55c-0.214-0.078-5.256-1.927-6.736-3.464c-1.436-1.491-2.154-2.425-2.184-2.464
			l0.596-0.456c0.007,0.009,0.726,0.943,2.128,2.4c0.894,0.928,3.376,2.044,4.989,2.706c-0.767-0.888-1.834-2.191-2.805-3.617
			c-1.793-2.635-2.357-5.817-2.381-5.952l0.739-0.127c0.005,0.031,0.562,3.16,2.262,5.657c1.73,2.54,3.771,4.684,3.792,4.705
			L22.038,81.913z"/>
	</g>
	<g>
		<g>
			<path fill="#E1AC71" d="M73.683,105.101c-11.649,0-22.154-2.514-29.579-7.078C26.87,87.43,26.373,60.989,31.86,50.695
				c10.95-20.54,30.9-27.22,39.919-27.882c2.794-0.206,5.256-0.305,7.526-0.305c10.646,0,18.157,2.203,23.64,6.933
				c8.636,7.451,14.579,23.747,13.824,37.907c-0.851,15.947-5.429,25.452-15.31,31.781
				C95.798,102.757,84.894,105.101,73.683,105.101z M79.306,23.507c-2.246,0-4.684,0.099-7.453,0.302
				c-8.829,0.648-28.366,7.201-39.11,27.356c-4.747,8.903-5.179,35.517,11.884,46.005c7.27,4.469,17.589,6.93,29.056,6.93
				c11.034,0,21.726-2.282,27.238-5.813c9.578-6.136,14.019-15.405,14.85-30.993c0.74-13.88-5.054-29.829-13.478-37.097
				C97.002,25.633,89.698,23.507,79.306,23.507z"/>
		</g>
		<g>
			<path fill="#E1AC71" d="M64.793,112.516c-28.58,0-36.375-11.522-40.121-17.06l-0.402-0.592
				c-3.846-5.608-4.658-21.185-4.69-21.845c-0.16-18.825,7.073-34.472,20.365-44.081c10.673-7.716,21.784-8.608,29.213-8.608
				c1.477,0,2.825,0.037,4.018,0.07l1.2,0.031c20.853,0.474,35.735,9.334,44.246,26.337c6.368,12.721,5.996,27.859-0.994,40.494
				c-7.803,14.105-22.305,22.857-40.834,24.643C72.583,112.31,68.546,112.516,64.793,112.516z M69.158,21.33
				c-7.29,0-18.188,0.873-28.627,8.418C27.509,39.162,20.423,54.519,20.58,72.989c0.007,0.139,0.83,15.934,4.516,21.309l0.405,0.597
				c3.65,5.395,11.244,16.62,39.293,16.62c3.721,0,7.726-0.204,11.905-0.607c18.191-1.753,32.417-10.324,40.055-24.131
				c6.83-12.347,7.194-27.137,0.974-39.563c-8.332-16.645-22.921-25.32-43.362-25.784l-1.217-0.031
				C71.964,21.366,70.625,21.33,69.158,21.33z"/>
		</g>
		<g>
			<path fill="#E1AC71" d="M77.38,121.749c-34.413,0-51.286-26.712-55.399-40.837c-4.458-15.309-0.669-32.651,10.396-47.581
				c9.995-13.484,26.002-17.295,26.163-17.332c4.857-1.205,9.186-1.791,13.224-1.791c11.816,0,20.166,5.202,29.067,13.012
				c3.167,2.779,6.534,4.928,9.789,7.006c9.081,5.797,17.659,11.272,17.896,28.761c0.173,12.707-5.423,31.405-18.315,44.537
				c-9.077,9.246-20.315,14.165-32.5,14.224L77.38,121.749z M71.763,15.208c-3.956,0-8.206,0.577-12.992,1.764
				c-0.165,0.038-15.823,3.775-25.591,16.955c-10.877,14.676-14.61,31.7-10.239,46.706c4.042,13.875,20.62,40.117,54.439,40.117
				l0.316-0.001c11.912-0.058,22.906-4.873,31.792-13.924c12.69-12.926,18.198-31.324,18.028-43.823
				c-0.23-16.95-8.203-22.039-17.435-27.932c-3.287-2.098-6.686-4.268-9.91-7.097C91.439,20.31,83.267,15.208,71.763,15.208z"/>
		</g>
	</g>
</g>
<g id="TEXTO">
	<g>
		<path fill="#8C8C8C" d="M105.555,24.881c0,0.424-0.254,0.636-0.761,0.636c-0.218,0-1.027-0.141-2.429-0.424
			c-2.586-0.518-4.736-0.778-6.452-0.778c-3.891,1.155-7.328,3.393-10.312,6.715c-2.984,3.322-6.386,8.707-10.203,16.152
			C69.551,58.611,62.06,65.361,52.926,67.434c1.91,0.283,3.567,0.424,4.97,0.424c4.449,0,8.186-1.392,11.208-4.176
			c2.926-2.689,5.356-5.544,7.291-8.564c0.217-0.331,0.387-0.496,0.508-0.496c0.145,0,0.229,0.048,0.254,0.142
			c0,0.354-1.39,2.182-4.17,5.485c-2.587,3.091-4.945,5.22-7.072,6.388c-2.127,1.167-4.727,1.752-7.797,1.752
			c-1.765,0-3.917-0.248-6.456-0.742c-1.547,0.495-3.325,0.742-5.331,0.742c-1.402,0-2.104-0.248-2.104-0.742
			c0-0.566,0.942-0.849,2.827-0.849c1.329,0,2.864,0.118,4.604,0.354c3.745-0.871,6.579-2.309,8.5-4.312
			c1.921-2.002,5.624-7.422,11.109-16.258H57.312c-5.92,6.079-10.5,10.403-13.737,12.971c-7.563,5.985-14.692,8.977-21.385,8.977
			c-3.818,0-7.062-0.872-9.732-2.615c-2.67-1.744-4.005-3.864-4.005-6.362c0-1.296,0.404-2.403,1.214-3.322
			c0.81-0.919,1.794-1.378,2.954-1.378c1.57,0,2.356,0.742,2.356,2.227c0,0.777-0.27,1.443-0.811,1.997
			c-0.54,0.554-1.17,0.831-1.89,0.831c-1.129,0-1.693-0.53-1.693-1.591l0.072-0.707c0.047-0.094,0.072-0.224,0.072-0.389
			c0-0.235-0.108-0.353-0.324-0.353c-0.24,0-0.48,0.295-0.72,0.883c-0.24,0.589-0.36,1.19-0.36,1.803c0,2.31,1.243,4.259,3.73,5.849
			c2.487,1.591,5.541,2.386,9.163,2.386c5.191,0,10.901-2.485,17.13-7.458c1.424-1.107,3.006-2.568,4.745-4.382
			c3.452-3.535,6.205-6.292,8.257-8.271l1.086-1.096h-7.032l0.435-0.636c2.32,0,4.7,0.024,7.141,0.071
			c7.08-7.681,13.948-13.295,20.606-16.841c6.657-3.546,13.694-5.342,21.113-5.39c1.715-0.33,3.322-0.495,4.821-0.495
			C103.876,23.29,105.555,23.82,105.555,24.881z M66.754,31.296c0,0.26-0.448,0.886-1.343,1.879
			c-2.468,2.765-4.803,4.147-7.005,4.147c-1.403,0-2.547-0.478-3.43-1.432c-0.884-0.954-1.325-2.209-1.325-3.764
			c0-1.319,0.797-3.452,2.392-6.397c0.749-1.366,1.124-2.498,1.124-3.393c0-1.178-0.67-2.185-2.012-3.022
			c-1.341-0.836-2.979-1.254-4.911-1.254c-5.534,0-10.663,2.073-15.387,6.22c-4.724,4.147-7.086,8.636-7.086,13.466
			c0,2.451,0.792,4.453,2.376,6.008c1.584,1.555,3.633,2.333,6.148,2.333c2.733,0,5.483-0.972,8.252-2.916s4.722-4.282,5.859-7.016
			c0.072-0.235,0.168-0.354,0.29-0.354c0.217,0,0.326,0.118,0.326,0.354c0,0.495-0.424,1.373-1.27,2.633
			c-0.846,1.261-1.716,2.315-2.611,3.164c-3.264,3.134-6.928,4.701-10.991,4.701c-2.757,0-4.969-0.825-6.638-2.474
			c-1.668-1.649-2.503-3.84-2.503-6.574c0-4.972,2.458-9.578,7.376-13.819c4.917-4.241,10.251-6.362,16.003-6.362
			c2.537,0,4.524,0.613,5.962,1.838c1.438,1.225,2.157,2.91,2.157,5.054c0,1.603-0.58,3.499-1.74,5.69
			c-1.04,2.003-1.559,3.358-1.559,4.064c0,1.744,1.064,2.616,3.194,2.616c2.42,0,4.925-1.749,7.515-5.248
			c0.217-0.283,0.399-0.425,0.545-0.425C66.657,31.013,66.754,31.107,66.754,31.296z M94.065,24.457
			c-6.307,0.307-12.155,2.074-17.543,5.301c-5.389,3.229-11.599,8.648-18.63,16.258h13.737c3.093-5.254,6.826-9.967,11.2-14.138
			C87.13,27.732,90.876,25.258,94.065,24.457z"/>
	</g>
	<g>
		<path fill="#8C8C8C" d="M135.847,69.454c0,1.224-0.167,2.565-0.501,4.024c-0.334,1.459-0.657,2.189-0.967,2.189
			c-0.242,0-0.363-0.117-0.363-0.353c0-0.071,0.024-0.176,0.073-0.318c0.64-1.647,0.96-3.424,0.96-5.331
			c0-2.966-0.906-5.349-2.718-7.149c-1.813-1.8-4.205-2.701-7.177-2.701c-4.084,0-8.216,1.284-12.396,3.849
			c3.576,2.778,5.365,5.792,5.365,9.042c0,2.755-1.13,5.104-3.389,7.046c-2.26,1.943-5.237,3.138-8.935,3.585
			c2.513,1.415,3.77,3.466,3.77,6.154c0,1.792-0.641,4.515-1.921,8.17c-0.846,2.406-1.269,4.292-1.269,5.66
			c0,1.415,0.52,2.611,1.561,3.589s2.312,1.468,3.813,1.468c1.549,0,3.013-0.5,4.393-1.502c0.314-0.189,0.532-0.283,0.653-0.283
			c0.193,0,0.29,0.094,0.29,0.283c0,0.397-0.678,0.859-2.033,1.385c-1.354,0.525-2.528,0.789-3.52,0.789
			c-2.323,0-4.271-0.902-5.844-2.706c-1.573-1.804-2.359-4.038-2.359-6.702c0-1.933,0.87-5.341,2.61-10.221
			c0.435-1.25,0.652-2.311,0.652-3.183c0-1.108-0.471-2.051-1.414-2.829c-1.547,0.141-2.429,0.212-2.646,0.212
			c-2.392,0-3.588-0.294-3.588-0.884c0-0.376,0.604-0.565,1.813-0.565c1.425,0,2.851,0.271,4.277,0.813
			c2.875-0.447,5.231-1.748,7.068-3.903c1.836-2.154,2.755-4.691,2.755-7.611c0-2.308-0.918-4.52-2.755-6.64l-0.362-0.459
			c-5.292,3.865-10.294,10.604-15.006,20.218c-2.852,5.82-5.461,10.015-7.829,12.584c-2.369,2.568-5.691,4.889-9.968,6.962
			c-5.051,2.403-9.557,3.605-13.52,3.605c-3.238,0-5.932-0.724-8.083-2.173c-2.151-1.449-3.226-3.257-3.226-5.425
			c0-1.202,0.375-2.238,1.124-3.11c0.749-0.871,1.631-1.308,2.646-1.308c1.474,0,2.211,0.801,2.211,2.403
			c0,0.801-0.248,1.484-0.743,2.05c-0.496,0.566-1.106,0.849-1.831,0.849c-1.257,0-1.861-0.636-1.813-1.909
			c0.024-0.518-0.024-0.778-0.145-0.778c-0.387,0-0.58,0.625-0.58,1.874c0,1.956,0.983,3.582,2.952,4.877
			c1.968,1.295,4.449,1.944,7.444,1.944c5.289,0,10.082-1.909,14.381-5.726c1.884-1.673,3.489-3.382,4.817-5.125
			c1.449-1.885,4.612-6.457,9.49-13.714c2.438-3.582,5.312-7.175,8.621-10.781c3.309-3.605,6.122-6.186,8.44-7.741
			c-3.77-3.131-9.303-4.698-16.601-4.698c-10.198,0-19.065,3.594-26.605,10.78c-6.186,5.891-9.279,11.44-9.279,16.647
			c0,2.639,0.87,4.736,2.61,6.291s4.096,2.333,7.068,2.333c4.857,0,9.877-2.273,15.06-6.821c5.184-4.547,7.775-8.965,7.775-13.253
			c0-3.417-1.8-5.125-5.4-5.125c-3.601,0-7.461,1.96-11.581,5.88c-4.12,3.92-6.18,7.598-6.18,11.035c0,0.848,0.291,1.578,0.875,2.19
			c0.583,0.612,1.263,0.918,2.04,0.918c0.413,0,0.62,0.106,0.62,0.318c0,0.189-0.231,0.283-0.692,0.283
			c-1.164,0-2.146-0.512-2.947-1.537c-0.801-1.023-1.2-2.277-1.2-3.761c0-3.672,2.066-7.251,6.198-10.735
			c4.132-3.484,8.373-5.227,12.723-5.227c4.156,0,6.234,1.873,6.234,5.62c0,4.571-2.646,9.189-7.938,13.854
			c-5.292,4.666-10.512,6.998-15.658,6.998c-3.359,0-6.048-0.983-8.065-2.951c-2.018-1.967-3.026-4.6-3.026-7.899
			c0-6.668,3.86-12.753,11.581-18.255c7.72-5.501,16.256-8.253,25.608-8.253c7.104,0,13.072,1.542,17.905,4.627
			c4.422-2.684,8.699-4.026,12.831-4.026c3.238,0,5.841,0.941,7.811,2.825C134.862,63.888,135.847,66.371,135.847,69.454z"/>
	</g>
</g>
<g id="Capa_5">
	<path fill="#E1AC71" d="M40.359,15.828c0,0-0.844-2.558-3.141-1.663c-1.953,0.761-1.547,3.23,0.891,4.402s3.378,1.937,3.378,1.937
		s1.935-2.75,2.279-4.515s-0.156-3.253-1.406-3.219C40.094,12.832,40.359,15.828,40.359,15.828z"/>
	<path fill="#E1AC71" d="M26.242,36.343c0,0,1.306-2.356-0.911-3.435c-1.884-0.917-3.422,1.057-2.628,3.642s0.87,3.795,0.87,3.795
		s3.333-0.446,4.862-1.392c1.53-0.946,2.283-2.323,1.409-3.218C28.262,34.114,26.242,36.343,26.242,36.343z"/>
	<path fill="#E1AC71" d="M52.444,41.602c0,0,1.972-0.842,1.159-2.794c-0.692-1.66-2.615-1.201-3.42,0.962
		c-0.806,2.163-1.363,3.011-1.363,3.011s2.255,1.558,3.661,1.78c1.405,0.222,2.552-0.276,2.465-1.358
		C54.788,41.242,52.444,41.602,52.444,41.602z"/>
	<path fill="#E1AC71" d="M109.409,99.445c0,0-1.691,1.319-0.405,2.998c1.093,1.427,2.835,0.492,3.06-1.806
		c0.225-2.297,0.547-3.26,0.547-3.26s-2.579-0.929-3.994-0.783c-1.415,0.146-2.396,0.92-2.035,1.944
		C107.235,100.392,109.409,99.445,109.409,99.445z"/>
	<path fill="#E1AC71" d="M69.535,106.674c0,0-1.691,1.319-0.405,2.998c1.093,1.427,2.835,0.492,3.06-1.806
		c0.225-2.297,0.547-3.26,0.547-3.26s-2.579-0.929-3.994-0.783s-2.396,0.92-2.035,1.944
		C67.361,107.622,69.535,106.674,69.535,106.674z"/>
	<path fill="#E1AC71" d="M75.811,110.61c0,0,0.113,2.142,2.225,2.049c1.796-0.079,2.027-2.042,0.272-3.543s-2.359-2.315-2.359-2.315
		s-2.239,1.582-2.93,2.826c-0.691,1.243-0.618,2.491,0.428,2.782C75.343,112.935,75.811,110.61,75.811,110.61z"/>
	<path fill="#E1AC71" d="M13.517,68.545c0,0-1.248-1.835-3.196-0.635c-1.656,1.02-0.828,2.879,1.631,3.278s3.465,0.8,3.465,0.8
		s1.273-2.584,1.264-4.05c-0.009-1.466-0.743-2.531-1.887-2.235C12.721,66.241,13.517,68.545,13.517,68.545z"/>
	<path fill="#E1AC71" d="M81.26,30.074c0,0,1.55,2.203,3.488,0.68c1.648-1.295,0.542-3.54-2.131-3.953
		c-2.673-0.413-3.795-0.873-3.795-0.873s-1.053,3.193-0.869,4.983s1.094,3.068,2.281,2.672C82.384,32.864,81.26,30.074,81.26,30.074
		z"/>
	<g>
		<path fill="#E1AC71" d="M41.361,25.464l-0.612-0.433c0.846-1.198,0.388-4.51,0.141-5.686l0.733-0.154
			C41.662,19.377,42.567,23.756,41.361,25.464z"/>
	</g>
	<path fill="#E1AC71" d="M49.857,42.848c-0.025,0.006-2.529,0.616-4.732,0.947"/>
	<g>
		<path fill="#E1AC71" d="M80.047,27.946h-0.75c-0.001,0-0.06-0.507-1.002-2.194c-0.981-1.756-1.917-2.378-1.926-2.384l0.405-0.632
			c0.044,0.028,1.091,0.71,2.175,2.649C79.968,27.21,80.047,27.807,80.047,27.946z"/>
	</g>
	<g>
		<path fill="#E1AC71" d="M71.62,106.262l-0.527-0.534c0.064-0.064,1.615-1.576,4.702-2.609c3.058-1.023,8.956-1.211,9.206-1.219
			l0.022,0.75c-0.06,0.001-6.038,0.191-8.99,1.18C73.124,104.804,71.634,106.247,71.62,106.262z"/>
	</g>
	<g>
		<path fill="#E1AC71" d="M75.888,107.919l-0.723-0.199c0.028-0.102,0.695-2.495,1.462-3.366c0.724-0.823,1.731-1.74,1.773-1.778
			l0.504,0.556c-0.01,0.009-1.019,0.927-1.714,1.718C76.648,105.465,76.066,107.274,75.888,107.919z"/>
	</g>
</g>
</svg>
